<?xml version="1.0" encoding="UTF-8" standalone="no"?>
<!-- Created with Inkscape (http://www.inkscape.org/) -->

<svg
   width="3.5in"
   height="2in"
   viewBox="0 0 336 192"
   version="1.1"
   id="svg5"
   xml:space="preserve"
   inkscape:version="1.2.1 (9c6d41e410, 2022-07-14, custom)"
   sodipodi:docname="Thumbs.svg"
   xmlns:inkscape="http://www.inkscape.org/namespaces/inkscape"
   xmlns:sodipodi="http://sodipodi.sourceforge.net/DTD/sodipodi-0.dtd"
   xmlns="http://www.w3.org/2000/svg"
   xmlns:svg="http://www.w3.org/2000/svg"><sodipodi:namedview
     id="namedview7"
     pagecolor="#ffffff"
     bordercolor="#999999"
     borderopacity="1"
     inkscape:showpageshadow="0"
     inkscape:pageopacity="0"
     inkscape:pagecheckerboard="0"
     inkscape:deskcolor="#d1d1d1"
     inkscape:document-units="in"
     showgrid="false"
     showguides="true"
     inkscape:zoom="3.7291667"
     inkscape:cx="191.86592"
     inkscape:cy="84.469274"
     inkscape:window-width="2560"
     inkscape:window-height="1364"
     inkscape:window-x="2560"
     inkscape:window-y="45"
     inkscape:window-maximized="1"
     inkscape:current-layer="layer2" /><defs
     id="defs2" /><g
     inkscape:groupmode="layer"
     id="layer2"
     inkscape:label="BG"><path
       style="fill:#2f8a19;fill-opacity:1;stroke-width:0.733801"
       d="M 76.547726,37.353239 V 25.301291 l 9.312127,-0.165792 12.29586,-10.755857 -0.18002,10.901654 17.150187,0.672755 -1.44344,11.094603 -5.76712,11.831613 -12.066427,0.524921 H 76.547726 Z"
       id="path9622"
       sodipodi:nodetypes="ccccccccccc" /><path
       style="fill:#48c448;fill-opacity:1"
       d="m 18.345756,25.750507 9.563927,-0.07398 c 0,0 11.362759,-12.991745 11.576042,-12.971992 0.213282,0.01975 1.977523,0.60409 1.977523,0.60409 l -2.452163,12.515981 17.832418,-0.159846 0.513225,5.299088 -7.110281,17.097318 c 0,0 -31.848253,0.213659 -32.08217,0.126096 -0.233917,-0.08756 0.181479,-22.436757 0.181479,-22.436757 z"
       id="path10668" /><path
       style="fill:#e04141;fill-opacity:1"
       d="m 24.68024,68.60952 -7.00956,15.777363 0.351733,6.21417 17.238366,0.1244 -1.674919,12.786207 3.315188,-0.49142 9.847748,-11.349087 9.768841,-1.03182 -0.305139,-22.36771 z"
       id="path16016" /><path
       style="fill:#ba1f1f;fill-opacity:1"
       d="m 83.692887,68.303704 31.782193,-0.174622 -0.26373,22.385891 -8.50614,0.34961 -13.062687,13.381727 -1.02193,-3.95342 2.68667,-9.720417 -17.695835,-0.0457 -0.86748,-5.87568 z"
       id="path16234" /></g><g
     inkscape:label="Layer 1"
     inkscape:groupmode="layer"
     id="layer1"><path
       d="m 26.027577,66.71679 h 22.2 v 25.600003 l -13.9,14.399997 -1.95,-1.55 q -0.3,-0.25 -0.45,-0.7 -0.15,-0.45 -0.15,-1.1 v -0.5 l 2.25,-10.549997 h -14.95 q -1.2,0 -2.1,-0.9 -0.9,-0.9 -0.9,-2.1 v -4.1 q 0,-0.35 -0.075,-0.725 -0.075,-0.375 0.075,-0.725 l 6.3,-14.5 q 0.45,-1.050003 1.475,-1.800003 1.025,-0.75 2.175,-0.75 z m 19.2,3.000003 h -19.85 l -6.3,14.95 v 4.65 h 18.65 l -2.65,12.449997 10.15,-10.699997 z m 0,21.35 v -21.35 z m 3,1.25 v -3 h 6.65 v -19.6 h -6.65 V 66.71679 h 9.65 v 25.600003 z"
       id="path9" /><path
       d="m 85.109853,66.621762 h 22.199997 v 25.600001 l -13.899997,14.399997 -1.95,-1.55 q -0.3,-0.25 -0.45,-0.7 -0.15,-0.45 -0.15,-1.1 v -0.5 l 2.25,-10.549997 h -14.95 q -1.2,0 -2.1,-0.9 -0.9,-0.9 -0.9,-2.1 v -4.1 q 0,-0.35 -0.075,-0.725 -0.075,-0.375 0.075,-0.725 l 6.3,-14.5 q 0.45,-1.050001 1.475,-1.800001 1.025,-0.75 2.175,-0.75 z m 19.199997,3.000001 H 84.459853 l -6.3,14.95 v 4.65 h 18.65 l -2.65,12.449997 10.149997,-10.699997 z m 0,21.35 v -21.35 z m 3,1.25 v -3 h 6.65 v -19.6 h -6.65 v -3.000001 h 9.65 v 25.600001 z"
       id="path9-6" /><path
       d="m 48.766781,49.675095 h -22.2 v -25.6 l 13.9,-14.399996 1.95,1.55 q 0.3,0.25 0.45,0.7 0.15,0.45 0.15,1.1 v 0.5 l -2.25,10.549996 h 14.95 q 1.2,0 2.1,0.9 0.9,0.9 0.9,2.1 v 4.1 q 0,0.35 0.075,0.725 0.075,0.375 -0.075,0.725 l -6.3,14.5 q -0.45,1.05 -1.475,1.8 -1.025,0.75 -2.175,0.75 z m -19.2,-3 h 19.85 l 6.3,-14.95 v -4.65 h -18.65 l 2.65,-12.449996 -10.15,10.699996 z m 0,-21.35 v 21.35 z m -3,-1.25 v 3 h -6.65 v 19.6 h 6.65 v 3 h -9.65 v -25.6 z"
       id="path18" /><path
       d="M 106.72423,49.988685 H 84.524233 v -25.6 l 13.9,-14.399996 1.949997,1.55 q 0.3,0.25 0.45,0.7 0.15,0.45 0.15,1.1 v 0.5 l -2.249997,10.549996 h 14.949997 q 1.19999,0 2.1,0.9 0.9,0.9 0.9,2.1 v 4.1 q 0,0.35 0.075,0.725 0.075,0.375 -0.075,0.725 l -6.30001,14.5 q -0.44999,1.05 -1.47499,1.8 -1.02501,0.75 -2.175,0.75 z m -19.199997,-3 h 19.849987 l 6.3,-14.95 v -4.65 H 95.024233 l 2.64999,-12.449996 -10.14999,10.699996 z m 0,-21.35 v 21.35 z m -3,-1.25 v 3 h -6.65001 v 19.6 h 6.65001 v 3 h -9.65001 v -25.6 z"
       id="path18-3" /></g></svg>
